<svg width="98" height="41" viewBox="0 0 98 41" fill="none" xmlns="http://www.w3.org/2000/svg">
<g id="logo" clip-path="url(#clip0_81_169)" filter="url(#filter0_d_81_169)">
<path id="Vector" d="M19.1218 20.7521L18.7446 21.2422L15.9145 17.5014L16.2917 17.01L16.4507 16.8016L16.8473 16.2853L21.8179 9.81702H27.5056L19.6773 20.0275L19.2835 20.5396L19.1218 20.7521Z" fill="#57C8E7"/>
<path id="Vector_2" d="M27.7433 33H21.7999L16.7491 26.3108L16.3567 25.7863L16.1992 25.5806L15.826 25.0865L18.7446 21.2422L18.7846 21.296L19.1191 21.7336L19.2752 21.9393L19.6746 22.4583L27.7433 33Z" fill="#57C8E7"/>
<path id="Vector_3" d="M19.1191 21.7336L19.2752 21.9393L16.3567 25.7863L16.1992 25.5806L15.826 25.0865L18.7446 21.2422L18.7846 21.296L19.1191 21.7336Z" fill="#4EAFCA"/>
<path id="Vector_4" d="M19.1218 20.7522L18.7446 21.2422L15.9145 17.5015L16.2917 17.0101L16.4507 16.8016L19.2835 20.5396L19.1218 20.7522Z" fill="#4EAFCA"/>
<path id="Vector_5" d="M10.0844 25.0865H15.8261L9.8163 33H4L10.0844 25.0865Z" fill="#3E5FAA"/>
<path id="Vector_6" d="M18.7432 21.2435L15.826 25.0864L12.9821 21.3167L4.24042 9.81702H10.0996L18.7432 21.2435Z" fill="#3E5FAA"/>
<path id="Vector_7" d="M34.187 9.81702H30.0303V32.9986H34.187V9.81702Z" fill="white"/>
<path id="Vector_8" d="M32.1101 4.04555e-06C31.7394 -0.0118267 31.37 0.0510051 31.0241 0.184755C30.6782 0.318506 30.3628 0.520436 30.0967 0.778519C29.8347 1.02898 29.6281 1.33139 29.4901 1.66633C29.3521 2.00127 29.2857 2.36135 29.2952 2.72343C29.2883 3.07924 29.3561 3.43254 29.4941 3.76062C29.6321 4.08869 29.8374 4.38426 30.0967 4.62831C30.3628 4.8864 30.6782 5.08833 31.0241 5.22208C31.37 5.35583 31.7394 5.41866 32.1101 5.40683C32.9466 5.40683 33.6246 5.14042 34.1442 4.60761C34.3994 4.34836 34.5999 4.04054 34.7338 3.70241C34.8677 3.36429 34.9322 3.00274 34.9236 2.63923C34.9306 2.28781 34.863 1.93889 34.725 1.61552C34.5871 1.29215 34.3821 1.0017 34.1235 0.763337C33.5798 0.252894 32.8559 -0.0215817 32.1101 4.04555e-06Z" fill="white"/>
<path id="Vector_9" d="M53.2306 21.3954C52.3287 20.9487 51.3768 20.6109 50.395 20.3891C49.3558 20.1462 48.3167 19.946 47.2775 19.7887C46.3218 19.6496 45.3746 19.457 44.4405 19.2117C43.6922 19.0304 42.9875 18.7019 42.3677 18.2454C41.8325 17.8322 41.5653 17.2401 41.5662 16.4689C41.5662 15.557 42.0135 14.8079 42.908 14.2217C43.8025 13.6355 45.1591 13.3429 46.9776 13.3438C48.1148 13.345 49.2481 13.4742 50.3563 13.7289C51.515 14.0001 52.6148 14.479 53.6023 15.1424L55.378 11.8875C54.3969 11.2305 53.1339 10.7244 51.5889 10.3692C50.0918 10.0185 48.5596 9.83923 47.0218 9.83496C45.0587 9.83496 43.3626 10.1133 41.9338 10.6701C40.5049 11.2268 39.3994 12.0187 38.6173 13.0456C37.8372 14.079 37.4257 15.3433 37.4482 16.6373C37.4482 17.9514 37.708 19.0005 38.2276 19.7845C38.7454 20.5688 39.4601 21.2038 40.3004 21.6259C41.2076 22.0836 42.1672 22.4289 43.1581 22.6543C44.1973 22.9 45.2383 23.1029 46.2812 23.263C47.324 23.4231 48.2692 23.6016 49.1168 23.7986C49.968 23.9983 50.6539 24.2978 51.1744 24.6972C51.6949 25.0966 51.9547 25.6533 51.9538 26.3674C51.9538 27.3373 51.5277 28.0938 50.6755 28.6367C49.8234 29.1796 48.4309 29.4511 46.4981 29.4511C44.9973 29.4506 43.5056 29.2178 42.0761 28.7609C40.6316 28.3008 39.4192 27.7445 38.439 27.0921L36.7131 30.3442C37.6933 31.0868 39.0425 31.7149 40.7606 32.2284C42.5245 32.7484 44.355 33.0079 46.1941 32.9986C48.243 32.9986 50.0039 32.7225 51.477 32.1704C52.9501 31.6183 54.0901 30.8402 54.8971 29.8362C55.7079 28.8311 56.1376 27.5724 56.1104 26.2818C56.1104 24.9935 55.8433 23.9656 55.3089 23.1981C54.7807 22.4307 54.0654 21.8103 53.2306 21.3954Z" fill="white"/>
<path id="Vector_10" d="M61.3905 27.4551C61.0315 27.449 60.6748 27.5137 60.3409 27.6457C60.007 27.7776 59.7025 27.9741 59.4449 28.224C59.1773 28.4784 58.9668 28.7866 58.8272 29.1283C58.6876 29.47 58.6221 29.8373 58.6351 30.2061C58.6264 30.5719 58.6914 30.9356 58.8263 31.2757C58.9611 31.6158 59.1631 31.9253 59.4202 32.1859C59.6773 32.4464 59.9842 32.6526 60.3227 32.7922C60.6612 32.9318 61.0243 33.002 61.3905 32.9986C61.7417 33.0027 62.09 32.9348 62.414 32.7993C62.7379 32.6637 63.0306 32.4633 63.274 32.2104C63.5355 31.9478 63.7403 31.6344 63.876 31.2898C64.0117 30.9451 64.0754 30.5763 64.0631 30.2061C64.0631 29.3973 63.8001 28.7365 63.274 28.224C63.0277 27.9763 62.734 27.7805 62.4105 27.6485C62.0869 27.5164 61.7401 27.4506 61.3905 27.4551Z" fill="white"/>
<path id="Vector_11" d="M83.9938 12.0822C82.2914 10.5666 79.8667 9.80875 76.7197 9.80875C74.9531 9.80303 73.1954 10.0575 71.5031 10.5638C69.9576 11.0043 68.5109 11.7367 67.2414 12.7213L68.9701 15.8091C69.9489 15.0206 71.0641 14.418 72.2604 14.0312C73.5423 13.5907 74.8886 13.3659 76.2443 13.3659C78.2941 13.3659 79.8312 13.8449 80.8556 14.8029C81.88 15.7608 82.3923 17.1085 82.3923 18.8459V19.6741H75.809C73.5289 19.6741 71.7177 19.9741 70.3755 20.5741C69.0332 21.1741 68.0659 21.9742 67.4735 22.9745C66.8783 23.9879 66.5711 25.1443 66.585 26.3191C66.5677 27.549 66.9311 28.7542 67.6256 29.77C68.3174 30.7822 69.3059 31.5755 70.5911 32.1497C71.8762 32.7239 73.37 33.0097 75.0725 33.0069C77.1784 33.0069 78.9247 32.6139 80.3112 31.8281C81.2272 31.3258 82.0131 30.6168 82.6064 29.7575V33.0069H86.5462V19.024C86.548 15.909 85.6972 13.595 83.9938 12.0822ZM82.3923 25.8001C81.9177 27.0611 81.0234 28.1207 79.8593 28.801C78.6902 29.4875 77.3263 29.8302 75.7676 29.8293C74.1793 29.8293 72.9384 29.4934 72.0448 28.8217C71.6165 28.5199 71.2694 28.1172 71.0341 27.6494C70.7988 27.1816 70.6827 26.663 70.6961 26.1397C70.6911 25.6726 70.7851 25.2098 70.9718 24.7816C71.1585 24.3534 71.4337 23.9695 71.7795 23.655C72.4999 22.9685 73.8997 22.6257 75.979 22.6267H82.3867L82.3923 25.8001Z" fill="white"/>
<path id="Vector_12" d="M91.1865 5.40548C92.0239 5.40548 92.7024 5.13907 93.222 4.60625C93.4772 4.347 93.6777 4.03918 93.8116 3.70106C93.9455 3.36293 94.01 3.00138 94.0014 2.63787C94.009 2.28543 93.9415 1.93538 93.8034 1.611C93.6652 1.28661 93.4595 0.995318 93.1999 0.756463C92.6553 0.248271 91.9314 -0.0237178 91.1865 3.03217e-05C90.8158 -0.0113284 90.4466 0.0517226 90.1008 0.185447C89.755 0.319172 89.4395 0.520849 89.1731 0.778545C88.9114 1.02912 88.705 1.33159 88.5673 1.66653C88.4295 2.00146 88.3633 2.36148 88.373 2.72346C88.3659 3.07916 88.4335 3.4324 88.5713 3.76047C88.7091 4.08854 88.9141 4.38417 89.1731 4.62834C89.4396 4.88579 89.7551 5.08721 90.101 5.2207C90.4468 5.35419 90.8159 5.41702 91.1865 5.40548Z" fill="white"/>
<path id="Vector_13" d="M93.2648 9.81702H89.1082V32.9986H93.2648V9.81702Z" fill="white"/>
</g>
<defs>
<filter id="filter0_d_81_169" x="0" y="0" width="98" height="41" filterUnits="userSpaceOnUse" color-interpolation-filters="sRGB">
<feFlood flood-opacity="0" result="BackgroundImageFix"/>
<feColorMatrix in="SourceAlpha" type="matrix" values="0 0 0 0 0 0 0 0 0 0 0 0 0 0 0 0 0 0 127 0" result="hardAlpha"/>
<feOffset dy="4"/>
<feGaussianBlur stdDeviation="2"/>
<feComposite in2="hardAlpha" operator="out"/>
<feColorMatrix type="matrix" values="0 0 0 0 0.0823529 0 0 0 0 0.0823529 0 0 0 0 0.0901961 0 0 0 0.25 0"/>
<feBlend mode="normal" in2="BackgroundImageFix" result="effect1_dropShadow_81_169"/>
<feBlend mode="normal" in="SourceGraphic" in2="effect1_dropShadow_81_169" result="shape"/>
</filter>
<clipPath id="clip0_81_169">
<rect width="90" height="33" fill="white" transform="translate(4)"/>
</clipPath>
</defs>
</svg>
